HIERARCHY
ROOT Hips
{
    OFFSET 0.000000 0.000000 0.000000
    CHANNELS 6 Xposition Yposition Zposition Zrotation Xrotation Yrotation
    JOINT Spine
    {
        OFFSET -0.000002 7.616785 0.000008
        CHANNELS 3 Zrotation Xrotation Yrotation
        JOINT Spine1
        {
            OFFSET -0.000000 20.671221 0.000009
            CHANNELS 3 Zrotation Xrotation Yrotation
            JOINT Neck
            {
                OFFSET 0.000004 22.542088 -0.000041
                CHANNELS 3 Zrotation Xrotation Yrotation
                JOINT Head
                {
                    OFFSET -0.000014 14.528515 1.902184
                    CHANNELS 3 Zrotation Xrotation Yrotation
                    End Site
                    {
                        OFFSET 0.000000 19.022141 0.000000
                    }
                }
            }
            JOINT LeftShoulder
            {
                OFFSET 3.797832 16.121201 -0.677286
                CHANNELS 3 Zrotation Xrotation Yrotation
                JOINT LeftArm
                {
                    OFFSET 11.576586 -0.000001 0.000010
                    CHANNELS 3 Zrotation Xrotation Yrotation
                    JOINT LeftForeArm
                    {
                        OFFSET 29.906433 0.000010 0.000015
                        CHANNELS 3 Zrotation Xrotation Yrotation
                        JOINT LeftHand
                        {
                            OFFSET 24.318340 0.000004 0.000012
                            CHANNELS 3 Zrotation Xrotation Yrotation
                            JOINT LeftHandThumb1
                            {
                                OFFSET 1.987814 -2.258876 3.162430
                                CHANNELS 3 Zrotation Xrotation Yrotation
                                JOINT LeftHandThumb2
                                {
                                    OFFSET 3.002310 -0.000014 0.000003
                                    CHANNELS 3 Zrotation Xrotation Yrotation
                                    JOINT LeftHandThumb3
                                    {
                                        OFFSET 2.566081 0.000002 0.000001
                                        CHANNELS 3 Zrotation Xrotation Yrotation
                                        End Site
                                        {
                                            OFFSET 2.440626 0.000000 0.000000
                                        }
                                    }
                                }
                            }
                            JOINT LeftHandIndex1
                            {
                                OFFSET 8.131948 0.000007 3.162437
                                CHANNELS 3 Zrotation Xrotation Yrotation
                                JOINT LeftHandIndex2
                                {
                                    OFFSET 4.517748 0.000002 0.000005
                                    CHANNELS 3 Zrotation Xrotation Yrotation
                                    JOINT LeftHandIndex3
                                    {
                                        OFFSET 2.258896 -0.000007 0.000004
                                        CHANNELS 3 Zrotation Xrotation Yrotation
                                        End Site
                                        {
                                            OFFSET 2.148437 0.000000 0.000000
                                        }
                                    }
                                }
                            }
                            JOINT LeftHandMiddle1
                            {
                                OFFSET 8.131986 0.000001 1.048123
                                CHANNELS 3 Zrotation Xrotation Yrotation
                                JOINT LeftHandMiddle2
                                {
                                    OFFSET 4.969536 -0.000004 0.000006
                                    CHANNELS 3 Zrotation Xrotation Yrotation
                                    JOINT LeftHandMiddle3
                                    {
                                        OFFSET 2.710640 0.000004 0.000004
                                        CHANNELS 3 Zrotation Xrotation Yrotation
                                        End Site
                                        {
                                            OFFSET 2.578118 0.000000 0.000000
                                        }
                                    }
                                }
                            }
                            JOINT LeftHandRing1
                            {
                                OFFSET 7.680207 -0.000001 -1.048118
                                CHANNELS 3 Zrotation Xrotation Yrotation
                                JOINT LeftHandRing2
                                {
                                    OFFSET 4.517748 0.000001 0.000006
                                    CHANNELS 3 Zrotation Xrotation Yrotation
                                    JOINT LeftHandRing3
                                    {
                                        OFFSET 2.258897 -0.000007 0.000002
                                        CHANNELS 3 Zrotation Xrotation Yrotation
                                        End Site
                                        {
                                            OFFSET 2.148437 0.000000 0.000000
                                        }
                                    }
                                }
                            }
                            JOINT LeftHandPinky1
                            {
                                OFFSET 7.228409 0.000003 -3.162426
                                CHANNELS 3 Zrotation Xrotation Yrotation
                                JOINT LeftHandPinky2
                                {
                                    OFFSET 3.614217 -0.000006 0.000003
                                    CHANNELS 3 Zrotation Xrotation Yrotation
                                    JOINT LeftHandPinky3
                                    {
                                        OFFSET 1.807108 -0.000003 0.000001
                                        CHANNELS 3 Zrotation Xrotation Yrotation
                                        End Site
                                        {
                                            OFFSET 1.718745 0.000000 0.000000
                                        }
                                    }
                                }
                            }
                        }
                    }
                }
            }
            JOINT RightShoulder
            {
                OFFSET -3.797831 16.121199 -0.677304
                CHANNELS 3 Zrotation Xrotation Yrotation
                JOINT RightArm
                {
                    OFFSET -11.576584 -0.000006 -0.000005
                    CHANNELS 3 Zrotation Xrotation Yrotation
                    JOINT RightForeArm
                    {
                        OFFSET -29.906404 0.000010 0.000003
                        CHANNELS 3 Zrotation Xrotation Yrotation
                        JOINT RightHand
                        {
                            OFFSET -24.318317 -0.000004 0.000009
                            CHANNELS 3 Zrotation Xrotation Yrotation
                            JOINT RightHandThumb1
                            {
                                OFFSET -1.987792 -2.258877 3.162436
                                CHANNELS 3 Zrotation Xrotation Yrotation
                                JOINT RightHandThumb2
                                {
                                    OFFSET -3.002298 -0.000002 0.000000
                                    CHANNELS 3 Zrotation Xrotation Yrotation
                                    JOINT RightHandThumb3
                                    {
                                        OFFSET -2.566110 -0.000011 0.000005
                                        CHANNELS 3 Zrotation Xrotation Yrotation
                                        End Site
                                        {
                                            OFFSET -2.440626 0.000000 0.000000
                                        }
                                    }
                                }
                            }
                            JOINT RightHandIndex1
                            {
                                OFFSET -8.131978 -0.000007 3.162437
                                CHANNELS 3 Zrotation Xrotation Yrotation
                                JOINT RightHandIndex2
                                {
                                    OFFSET -4.517740 0.000002 0.000004
                                    CHANNELS 3 Zrotation Xrotation Yrotation
                                    JOINT RightHandIndex3
                                    {
                                        OFFSET -2.258871 0.000007 0.000004
                                        CHANNELS 3 Zrotation Xrotation Yrotation
                                        End Site
                                        {
                                            OFFSET -2.148437 0.000000 0.000000
                                        }
                                    }
                                }
                            }
                            JOINT RightHandMiddle1
                            {
                                OFFSET -8.131976 -0.000006 1.048126
                                CHANNELS 3 Zrotation Xrotation Yrotation
                                JOINT RightHandMiddle2
                                {
                                    OFFSET -4.969550 -0.000010 -0.000000
                                    CHANNELS 3 Zrotation Xrotation Yrotation
                                    JOINT RightHandMiddle3
                                    {
                                        OFFSET -2.710635 0.000005 0.000005
                                        CHANNELS 3 Zrotation Xrotation Yrotation
                                        End Site
                                        {
                                            OFFSET -2.578118 0.000000 0.000000
                                        }
                                    }
                                }
                            }
                            JOINT RightHandRing1
                            {
                                OFFSET -7.680207 -0.000006 -1.048115
                                CHANNELS 3 Zrotation Xrotation Yrotation
                                JOINT RightHandRing2
                                {
                                    OFFSET -4.517740 0.000002 0.000005
                                    CHANNELS 3 Zrotation Xrotation Yrotation
                                    JOINT RightHandRing3
                                    {
                                        OFFSET -2.258871 0.000006 0.000005
                                        CHANNELS 3 Zrotation Xrotation Yrotation
                                        End Site
                                        {
                                            OFFSET -2.148437 0.000000 0.000000
                                        }
                                    }
                                }
                            }
                            JOINT RightHandPinky1
                            {
                                OFFSET -7.228440 -0.000004 -3.162426
                                CHANNELS 3 Zrotation Xrotation Yrotation
                                JOINT RightHandPinky2
                                {
                                    OFFSET -3.614208 -0.000007 -0.000001
                                    CHANNELS 3 Zrotation Xrotation Yrotation
                                    JOINT RightHandPinky3
                                    {
                                        OFFSET -1.807104 -0.000002 -0.000002
                                        CHANNELS 3 Zrotation Xrotation Yrotation
                                        End Site
                                        {
                                            OFFSET -1.718745 0.000000 0.000000
                                        }
                                    }
                                }
                            }
                        }
                    }
                }
            }
        }
    }
    JOINT LeftUpLeg
    {
        OFFSET 9.511074 0.000001 0.000000
        CHANNELS 3 Zrotation Xrotation Yrotation
        JOINT LeftLeg
        {
            OFFSET 0.000005 -43.875637 -0.000020
            CHANNELS 3 Zrotation Xrotation Yrotation
            JOINT LeftFoot
            {
                OFFSET 0.000005 -35.354160 -0.000016
                CHANNELS 3 Zrotation Xrotation Yrotation
                JOINT LeftToeBase
                {
                    OFFSET 0.000004 -6.182192 14.266604
                    CHANNELS 3 Zrotation Xrotation Yrotation
                    End Site
                    {
                        OFFSET 0.000000 0.000000 3.804428
                    }
                }
            }
        }
    }
    JOINT RightUpLeg
    {
        OFFSET -9.511076 -0.000001 -0.000000
        CHANNELS 3 Zrotation Xrotation Yrotation
        JOINT RightLeg
        {
            OFFSET -0.000004 -43.875637 0.000005
            CHANNELS 3 Zrotation Xrotation Yrotation
            JOINT RightFoot
            {
                OFFSET 0.000001 -35.354160 -0.000018
                CHANNELS 3 Zrotation Xrotation Yrotation
                JOINT RightToeBase
                {
                    OFFSET -0.000003 -6.182193 14.266583
                    CHANNELS 3 Zrotation Xrotation Yrotation
                    End Site
                    {
                        OFFSET 0.000000 0.000000 3.804428
                    }
                }
            }
        }
    }
}
MOTION
Frames:    5
Frame Time:    0.002778
25.611956    91.547920    606.711304    3.814656    -6.009546    -155.825226    -0.298209    6.198567    0.394113    -1.491045    6.196573    0.522897    4.735098    3.806726    -17.095997    4.735099    3.806726    -17.095993    1.246526    -2.801753    -1.105398    -57.077782    12.313177    -20.982132    -50.762566    24.827883    -95.376839    21.273466    3.901837    11.385277    47.448215    38.866444    -34.355045    -34.999996    -0.000005    0.000009    -0.000000    0.000000    -0.000000    0.000008    10.000003    -0.000008    -0.000000    0.000000    -0.000000    -0.000000    0.000000    -0.000000    -0.000000    0.000000    -0.000000    -0.000000    0.000000    -0.000000    -0.000000    0.000000    -0.000000    -0.000000    0.000000    -0.000000    -0.000000    0.000000    -0.000000    -0.000000    0.000000    -0.000000    0.000000    -10.000000    0.000000    -0.000000    0.000000    -0.000000    -0.000000    0.000000    -0.000000    -7.363761    0.163876    2.749584    64.493294    5.488980    5.000260    -1.425991    26.397135    83.109848    -65.203865    16.805515    -7.553619    -47.448219    38.866428    34.355038    34.999992    -0.000002    -0.000003    -0.000000    0.000000    -0.000000    -0.000001    10.000000    0.000007    -0.000000    0.000000    -0.000000    -0.000000    0.000000    -0.000000    -0.000000    0.000000    -0.000000    -0.000000    0.000000    -0.000000    -0.000000    0.000000    -0.000000    -0.000000    0.000000    -0.000000    -0.000000    0.000000    -0.000000    -0.000000    0.000000    -0.000000    0.000000    -10.000003    0.000000    -0.000000    0.000000    -0.000000    -0.000000    0.000000    -0.000000    13.523019    -22.429640    -0.613705    -0.000000    28.087656    0.000001    -12.586642    -13.858175    1.377120    0.000000    -1.355011    0.000000    -11.788832    -24.065531    -3.218903    0.000000    34.791939    0.000002    13.961333    -15.056669    -19.768827    -0.000000    -3.660303    0.000000    
25.630844    91.517136    606.769226    3.822272    -6.047903    -155.818344    -0.297417    6.256302    0.424351    -1.487081    6.254298    0.553980    4.753250    3.835339    -17.102262    4.753250    3.835344    -17.102261    1.240745    -2.807649    -1.140731    -57.057537    12.276893    -21.030905    -50.796265    24.865566    -95.415398    21.230082    3.886503    11.373020    47.448204    38.866428    -34.355030    -34.999977    0.000003    0.000003    -0.000000    0.000000    -0.000000    -0.000004    9.999997    0.000007    -0.000000    0.000000    -0.000000    -0.000000    0.000000    -0.000000    -0.000000    0.000000    -0.000000    -0.000000    0.000000    -0.000000    -0.000000    0.000000    -0.000000    -0.000000    0.000000    -0.000000    -0.000000    0.000000    -0.000000    -0.000000    0.000000    -0.000000    0.000002    -10.000003    0.000000    -0.000000    0.000000    -0.000000    -0.000000    0.000000    -0.000000    -7.325587    0.094138    2.805941    64.493324    5.470651    5.021532    -1.444063    26.378395    83.245018    -65.155487    16.781580    -7.560378    -47.448208    38.866432    34.355026    35.000000    0.000002    0.000007    -0.000000    0.000000    -0.000000    -0.000001    10.000001    -0.000007    -0.000000    0.000000    -0.000000    -0.000000    0.000000    -0.000000    -0.000000    0.000000    -0.000000    -0.000000    0.000000    -0.000000    -0.000000    0.000000    -0.000000    -0.000000    0.000000    -0.000000    -0.000000    0.000000    -0.000000    -0.000000    0.000000    -0.000000    -0.000000    -10.000001    -0.000003    -0.000000    0.000000    -0.000000    -0.000000    0.000000    -0.000000    13.521675    -22.569799    -0.595830    -0.000000    28.215992    0.000001    -12.618486    -13.894695    1.351295    -0.000000    -1.364992    0.000001    -11.828073    -24.203655    -3.254199    -0.000001    34.928467    0.000000    14.008221    -15.107026    -19.737041    0.000000    -3.666778    0.000000    
25.661432    91.460892    606.865906    3.858595    -6.203412    -155.815552    -0.300719    6.267147    0.468051    -1.503588    6.265093    0.599347    4.779777    3.819350    -17.142193    4.779774    3.819351    -17.142187    1.265477    -2.752749    -1.157669    -57.029247    12.192175    -21.165485    -50.875526    24.948481    -95.432991    21.131918    3.860157    11.365767    47.448193    38.866428    -34.355015    -34.999989    0.000001    -0.000003    -0.000000    0.000000    -0.000000    -0.000008    9.999998    0.000011    -0.000000    0.000000    -0.000000    -0.000000    0.000000    -0.000000    -0.000000    0.000000    -0.000000    -0.000000    0.000000    -0.000000    -0.000000    0.000000    -0.000000    -0.000000    0.000000    -0.000000    -0.000000    0.000000    -0.000000    -0.000000    0.000000    -0.000000    -0.000006    -9.999999    0.000010    -0.000000    0.000000    -0.000000    -0.000000    0.000000    -0.000000    -7.270037    0.061174    2.807997    64.451385    5.381121    5.072127    -1.442476    26.381989    83.440697    -65.159988    16.826828    -7.579607    -47.448223    38.866421    34.355053    34.999996    -0.000003    0.000003    -0.000000    0.000000    -0.000000    0.000001    10.000002    0.000013    -0.000000    0.000000    -0.000000    -0.000000    0.000000    -0.000000    -0.000000    0.000000    -0.000000    -0.000000    0.000000    -0.000000    -0.000000    0.000000    -0.000000    -0.000000    0.000000    -0.000000    -0.000000    0.000000    -0.000000    -0.000000    0.000000    -0.000000    0.000000    -9.999996    0.000005    -0.000000    0.000000    -0.000000    -0.000000    0.000000    -0.000000    13.513716    -22.955883    -0.524731    0.000001    28.571867    0.000001    -12.590162    -13.980657    1.306935    0.000000    -1.382167    0.000002    -11.928166    -24.586731    -3.341714    0.000003    35.278675    -0.000003    14.140662    -15.207840    -19.646942    -0.000000    -3.666391    -0.000000    
25.677931    91.437737    606.919556    3.870584    -6.244987    -155.800766    -0.298786    6.317013    0.496602    -1.493927    6.314966    0.628088    4.802713    3.852936    -17.160831    4.802714    3.852937    -17.160831    1.259151    -2.760612    -1.184576    -57.010105    12.163700    -21.212378    -50.903553    24.992476    -95.480927    21.096155    3.840672    11.338582    47.448200    38.866428    -34.355030    -34.999985    0.000006    0.000011    -0.000000    0.000000    -0.000000    0.000000    9.999996    -0.000003    -0.000000    0.000000    -0.000000    -0.000000    0.000000    -0.000000    -0.000000    0.000000    -0.000000    -0.000000    0.000000    -0.000000    -0.000000    0.000000    -0.000000    -0.000000    0.000000    -0.000000    -0.000000    0.000000    -0.000000    -0.000000    0.000000    -0.000000    0.000001    -9.999998    -0.000007    -0.000000    0.000000    -0.000000    -0.000000    0.000000    -0.000000    -7.227165    -0.026079    2.871883    64.446411    5.363300    5.101985    -1.510107    26.370914    83.567352    -65.119186    16.770065    -7.568779    -47.448204    38.866421    34.355019    34.999996    -0.000002    0.000010    -0.000000    0.000000    -0.000000    -0.000003    9.999997    -0.000010    -0.000000    0.000000    -0.000000    -0.000000    0.000000    -0.000000    -0.000000    0.000000    -0.000000    -0.000000    0.000000    -0.000000    -0.000000    0.000000    -0.000000    -0.000000    0.000000    -0.000000    -0.000000    0.000000    -0.000000    -0.000000    0.000000    -0.000000    0.000002    -10.000000    0.000003    -0.000000    0.000000    -0.000000    -0.000000    0.000000    -0.000000    13.512097    -23.076345    -0.518128    0.000000    28.648546    -0.000001    -12.615645    -14.002569    1.278046    0.000000    -1.378331    0.000001    -11.960125    -24.698238    -3.372646    -0.000002    35.360470    0.000001    14.161622    -15.245283    -19.632477    -0.000000    -3.683138    -0.000000    
25.697395    91.411293    606.977173    3.882664    -6.285163    -155.791199    -0.297576    6.372743    0.524630    -1.487877    6.370701    0.656735    4.823444    3.881313    -17.187069    4.823444    3.881319    -17.187067    1.256667    -2.764233    -1.218532    -56.986416    12.128642    -21.260990    -50.945164    25.036886    -95.529556    21.053909    3.818327    11.308122    47.448219    38.866440    -34.355030    -35.000019    -0.000002    0.000001    -0.000000    0.000000    -0.000000    -0.000011    9.999994    0.000008    -0.000000    0.000000    -0.000000    -0.000000    0.000000    -0.000000    -0.000000    0.000000    -0.000000    -0.000000    0.000000    -0.000000    -0.000000    0.000000    -0.000000    -0.000000    0.000000    -0.000000    -0.000000    0.000000    -0.000000    -0.000000    0.000000    -0.000000    -0.000001    -10.000001    0.000010    -0.000000    0.000000    -0.000000    -0.000000    0.000000    -0.000000    -7.184515    -0.116830    2.939439    64.437195    5.343052    5.136569    -1.555153    26.345772    83.692871    -65.034531    16.707874    -7.570855    -47.448219    38.866428    34.355038    35.000004    -0.000002    0.000001    -0.000000    0.000000    -0.000000    -0.000000    10.000003    0.000002    -0.000000    0.000000    -0.000000    -0.000000    0.000000    -0.000000    -0.000000    0.000000    -0.000000    -0.000000    0.000000    -0.000000    -0.000000    0.000000    -0.000000    -0.000000    0.000000    -0.000000    -0.000000    0.000000    -0.000000    -0.000000    0.000000    -0.000000    0.000002    -10.000000    -0.000002    -0.000000    0.000000    -0.000000    -0.000000    0.000000    -0.000000    13.515922    -23.205616    -0.502912    0.000000    28.740870    -0.000001    -12.655525    -14.024947    1.259038    -0.000000    -1.373949    -0.000002    -11.994881    -24.823311    -3.407904    -0.000001    35.464531    0.000001    14.198116    -15.282664    -19.611322    -0.000000    -3.698907    -0.000000    
